%TF.GenerationSoftware,KiCad,Pcbnew,10.0.1*%
%TF.CreationDate,2026-04-19T22:12:28+02:00*%
%TF.ProjectId,Testik,54657374-696b-42e6-9b69-6361645f7063,rev?*%
%TF.SameCoordinates,Original*%
%TF.FileFunction,Soldermask,Bot*%
%TF.FilePolarity,Negative*%
%FSLAX46Y46*%
G04 Gerber Fmt 4.6, Leading zero omitted, Abs format (unit mm)*
G04 Created by KiCad (PCBNEW 10.0.1) date 2026-04-19 22:12:28*
%MOMM*%
%LPD*%
G01*
G04 APERTURE LIST*
G04 Aperture macros list*
%AMRoundRect*
0 Rectangle with rounded corners*
0 $1 Rounding radius*
0 $2 $3 $4 $5 $6 $7 $8 $9 X,Y pos of 4 corners*
0 Add a 4 corners polygon primitive as box body*
4,1,4,$2,$3,$4,$5,$6,$7,$8,$9,$2,$3,0*
0 Add four circle primitives for the rounded corners*
1,1,$1+$1,$2,$3*
1,1,$1+$1,$4,$5*
1,1,$1+$1,$6,$7*
1,1,$1+$1,$8,$9*
0 Add four rect primitives between the rounded corners*
20,1,$1+$1,$2,$3,$4,$5,0*
20,1,$1+$1,$4,$5,$6,$7,0*
20,1,$1+$1,$6,$7,$8,$9,0*
20,1,$1+$1,$8,$9,$2,$3,0*%
G04 Aperture macros list end*
%ADD10C,1.400000*%
%ADD11C,2.019000*%
%ADD12RoundRect,0.102000X0.907500X0.907500X-0.907500X0.907500X-0.907500X-0.907500X0.907500X-0.907500X0*%
%ADD13C,1.524000*%
%ADD14R,2.000000X2.000000*%
%ADD15C,2.000000*%
%ADD16C,1.700000*%
%ADD17C,4.000000*%
%ADD18C,2.200000*%
G04 APERTURE END LIST*
D10*
%TO.C,R3*%
X163000000Y190000000D03*
X157920000Y190000000D03*
%TD*%
D11*
%TO.C,D1*%
X170270000Y207000000D03*
D12*
X172810000Y207000000D03*
%TD*%
D10*
%TO.C,R1*%
X163540000Y207000000D03*
X158460000Y207000000D03*
%TD*%
D13*
%TO.C,U1*%
X151160000Y205620000D03*
X148620000Y205620000D03*
X146080000Y205620000D03*
X143540000Y205620000D03*
X141000000Y205620000D03*
X138460000Y205620000D03*
X135920000Y205620000D03*
X135920000Y190380000D03*
X138460000Y190380000D03*
X141000000Y190380000D03*
X143540000Y190380000D03*
X146080000Y190380000D03*
X148620000Y190380000D03*
X151160000Y190380000D03*
%TD*%
D11*
%TO.C,D3*%
X170460000Y190000000D03*
D12*
X173000000Y190000000D03*
%TD*%
D14*
%TO.C,BZ1*%
X127600000Y200000000D03*
D15*
X120000000Y200000000D03*
%TD*%
D10*
%TO.C,R2*%
X162730000Y199000000D03*
X157650000Y199000000D03*
%TD*%
D11*
%TO.C,D2*%
X169730000Y199000000D03*
D12*
X172270000Y199000000D03*
%TD*%
D16*
%TO.C,SW2*%
X143540000Y226430000D03*
D17*
X143540000Y221350000D03*
D16*
X143540000Y216270000D03*
D18*
X148620000Y218810000D03*
X146080000Y225160000D03*
%TD*%
D16*
%TO.C,SW3*%
X121000000Y226080000D03*
D17*
X121000000Y221000000D03*
D16*
X121000000Y215920000D03*
D18*
X126080000Y218460000D03*
X123540000Y224810000D03*
%TD*%
D16*
%TO.C,SW1*%
X166540000Y226430000D03*
D17*
X166540000Y221350000D03*
D16*
X166540000Y216270000D03*
D18*
X171620000Y218810000D03*
X169080000Y225160000D03*
%TD*%
M02*
