%TF.GenerationSoftware,KiCad,Pcbnew,10.0.1*%
%TF.CreationDate,2026-04-24T15:22:08+02:00*%
%TF.ProjectId,Testik,54657374-696b-42e6-9b69-6361645f7063,rev?*%
%TF.SameCoordinates,Original*%
%TF.FileFunction,Copper,L1,Top*%
%TF.FilePolarity,Positive*%
%FSLAX46Y46*%
G04 Gerber Fmt 4.6, Leading zero omitted, Abs format (unit mm)*
G04 Created by KiCad (PCBNEW 10.0.1) date 2026-04-24 15:22:08*
%MOMM*%
%LPD*%
G01*
G04 APERTURE LIST*
G04 Aperture macros list*
%AMRoundRect*
0 Rectangle with rounded corners*
0 $1 Rounding radius*
0 $2 $3 $4 $5 $6 $7 $8 $9 X,Y pos of 4 corners*
0 Add a 4 corners polygon primitive as box body*
4,1,4,$2,$3,$4,$5,$6,$7,$8,$9,$2,$3,0*
0 Add four circle primitives for the rounded corners*
1,1,$1+$1,$2,$3*
1,1,$1+$1,$4,$5*
1,1,$1+$1,$6,$7*
1,1,$1+$1,$8,$9*
0 Add four rect primitives between the rounded corners*
20,1,$1+$1,$2,$3,$4,$5,0*
20,1,$1+$1,$4,$5,$6,$7,0*
20,1,$1+$1,$6,$7,$8,$9,0*
20,1,$1+$1,$8,$9,$2,$3,0*%
G04 Aperture macros list end*
%TA.AperFunction,ComponentPad*%
%ADD10C,1.400000*%
%TD*%
%TA.AperFunction,ComponentPad*%
%ADD11C,1.815000*%
%TD*%
%TA.AperFunction,ComponentPad*%
%ADD12R,1.815000X1.815000*%
%TD*%
%TA.AperFunction,SMDPad,CuDef*%
%ADD13RoundRect,0.152400X-1.063600X-0.609600X1.063600X-0.609600X1.063600X0.609600X-1.063600X0.609600X0*%
%TD*%
%TA.AperFunction,ComponentPad*%
%ADD14C,1.524000*%
%TD*%
%TA.AperFunction,SMDPad,CuDef*%
%ADD15RoundRect,0.152400X1.063600X0.609600X-1.063600X0.609600X-1.063600X-0.609600X1.063600X-0.609600X0*%
%TD*%
%TA.AperFunction,ComponentPad*%
%ADD16R,2.000000X2.000000*%
%TD*%
%TA.AperFunction,ComponentPad*%
%ADD17C,2.000000*%
%TD*%
%TA.AperFunction,ComponentPad*%
%ADD18C,2.200000*%
%TD*%
%TA.AperFunction,ViaPad*%
%ADD19C,0.600000*%
%TD*%
%TA.AperFunction,Conductor*%
%ADD20C,0.200000*%
%TD*%
G04 APERTURE END LIST*
D10*
%TO.P,R3,1*%
%TO.N,Net-(D3-PadA)*%
X163000000Y190000000D03*
%TO.P,R3,2*%
%TO.N,LED3*%
X157920000Y190000000D03*
%TD*%
D11*
%TO.P,D1,A*%
%TO.N,Net-(D1-PadA)*%
X170270000Y207000000D03*
D12*
%TO.P,D1,C*%
%TO.N,GND*%
X172810000Y207000000D03*
%TD*%
D10*
%TO.P,R1,1*%
%TO.N,Net-(D1-PadA)*%
X163540000Y207000000D03*
%TO.P,R1,2*%
%TO.N,LED1*%
X158460000Y207000000D03*
%TD*%
D13*
%TO.P,U1,1,P26_A0_D0_1*%
%TO.N,button1*%
X151995000Y190380000D03*
D14*
X151160000Y190380000D03*
D13*
%TO.P,U1,2,P27_A1_D1_2*%
%TO.N,button2*%
X151995000Y192920000D03*
D14*
X151160000Y192920000D03*
D13*
%TO.P,U1,3,P28_A2_D2_3*%
%TO.N,button3*%
X151995000Y195460000D03*
D14*
X151160000Y195460000D03*
D13*
%TO.P,U1,4,P29_A3_D3_4*%
%TO.N,LED1*%
X151995000Y198000000D03*
D14*
X151160000Y198000000D03*
D13*
%TO.P,U1,5,P6_SDA_D4_5*%
%TO.N,LED2*%
X151995000Y200540000D03*
D14*
X151160000Y200540000D03*
D13*
%TO.P,U1,6,P7_SCL_D5_6*%
%TO.N,LED3*%
X151995000Y203080000D03*
D14*
X151160000Y203080000D03*
D13*
%TO.P,U1,7,P0_D6_TX_7*%
%TO.N,buzzer1*%
X151995000Y205620000D03*
D14*
X151160000Y205620000D03*
%TO.P,U1,8,P1_D7_RX_8*%
%TO.N,unconnected-(U1-P1_D7_RX-Pad8)*%
X135920000Y205620000D03*
D15*
X135085000Y205620000D03*
D14*
%TO.P,U1,9,P2_D8_SCK_9*%
%TO.N,unconnected-(U1-P2_D8_SCK-Pad9)*%
X135920000Y203080000D03*
D15*
X135085000Y203080000D03*
D14*
%TO.P,U1,10,P4_D9_MISO_10*%
%TO.N,unconnected-(U1-P4_D9_MISO-Pad10)*%
X135920000Y200540000D03*
D15*
X135085000Y200540000D03*
D14*
%TO.P,U1,11,P3_D10_MOSI_11*%
%TO.N,unconnected-(U1-P3_D10_MOSI-Pad11)*%
X135920000Y198000000D03*
D15*
X135085000Y198000000D03*
D14*
%TO.P,U1,12,3V3_12*%
%TO.N,unconnected-(U1-3V3-Pad12)*%
X135920000Y195460000D03*
D15*
X135085000Y195460000D03*
D14*
%TO.P,U1,13,GND_13*%
%TO.N,GND*%
X135920000Y192920000D03*
D15*
X135085000Y192920000D03*
D14*
%TO.P,U1,14,VBUS_14*%
%TO.N,unconnected-(U1-VBUS-Pad14)*%
X135920000Y190380000D03*
D15*
X135085000Y190380000D03*
%TD*%
D11*
%TO.P,D3,A*%
%TO.N,Net-(D3-PadA)*%
X170460000Y190000000D03*
D12*
%TO.P,D3,C*%
%TO.N,GND*%
X173000000Y190000000D03*
%TD*%
D16*
%TO.P,BZ1,1,+_1*%
%TO.N,buzzer1*%
X127600000Y200000000D03*
D17*
%TO.P,BZ1,2,-_2*%
%TO.N,GND*%
X120000000Y200000000D03*
%TD*%
D10*
%TO.P,R2,1*%
%TO.N,Net-(D2-PadA)*%
X162730000Y199000000D03*
%TO.P,R2,2*%
%TO.N,LED2*%
X157650000Y199000000D03*
%TD*%
D11*
%TO.P,D2,A*%
%TO.N,Net-(D2-PadA)*%
X169730000Y199000000D03*
D12*
%TO.P,D2,C*%
%TO.N,GND*%
X172270000Y199000000D03*
%TD*%
D18*
%TO.P,SW2,1,1_1*%
%TO.N,button2*%
X148620000Y218810000D03*
%TO.P,SW2,2,2_2*%
%TO.N,GND*%
X146080000Y225160000D03*
%TD*%
%TO.P,SW3,1,1_1*%
%TO.N,button3*%
X126080000Y218460000D03*
%TO.P,SW3,2,2_2*%
%TO.N,GND*%
X123540000Y224810000D03*
%TD*%
%TO.P,SW1,1,1_1*%
%TO.N,button1*%
X171620000Y218810000D03*
%TO.P,SW1,2,2_2*%
%TO.N,GND*%
X169080000Y225160000D03*
%TD*%
D19*
%TO.N,LED3*%
X154600000Y199850000D03*
X154600000Y197850000D03*
%TO.N,LED1*%
X154800000Y205050000D03*
%TO.N,button3*%
X146900000Y199500000D03*
%TD*%
%TO.N,Net-(D3-PadA)*%
D20*
X163000000Y190000000D02*
X170460000Y190000000D01*
%TO.N,LED3*%
X154600000Y200252214D02*
X151772214Y203080000D01*
X157920000Y190000000D02*
X154600000Y193320000D01*
X151772214Y203080000D02*
X151160000Y203080000D01*
X154600000Y199850000D02*
X154600000Y200252214D01*
X154600000Y193320000D02*
X154600000Y197850000D01*
%TO.N,Net-(D1-PadA)*%
X163540000Y207000000D02*
X170270000Y207000000D01*
%TO.N,GND*%
X169080000Y226000000D02*
X169080000Y225160000D01*
X145730000Y224810000D02*
X146080000Y225160000D01*
X172810000Y199540000D02*
X172270000Y199000000D01*
X123540000Y203540000D02*
X120000000Y200000000D01*
X169080000Y210730000D02*
X172810000Y207000000D01*
X172810000Y207000000D02*
X172810000Y199540000D01*
X146080000Y226000000D02*
X146080000Y225160000D01*
X123540000Y224810000D02*
X123540000Y203540000D01*
X172270000Y190730000D02*
X173000000Y190000000D01*
X169080000Y225160000D02*
X169080000Y210730000D01*
X123540000Y224810000D02*
X145730000Y224810000D01*
X127080000Y192920000D02*
X135085000Y192920000D01*
X120000000Y200000000D02*
X127080000Y192920000D01*
X172270000Y199000000D02*
X172270000Y190730000D01*
X169080000Y225160000D02*
X146080000Y225160000D01*
%TO.N,LED1*%
X156510000Y205050000D02*
X154800000Y205050000D01*
X158460000Y207000000D02*
X156510000Y205050000D01*
%TO.N,button3*%
X147120000Y199500000D02*
X151160000Y195460000D01*
X146900000Y199500000D02*
X147120000Y199500000D01*
%TO.N,LED2*%
X153535000Y199000000D02*
X151995000Y200540000D01*
X157650000Y199000000D02*
X153535000Y199000000D01*
%TO.N,buzzer1*%
X127600000Y200000000D02*
X131800000Y204200000D01*
X149740000Y204200000D02*
X151160000Y205620000D01*
X131800000Y204200000D02*
X149740000Y204200000D01*
%TO.N,Net-(D2-PadA)*%
X162730000Y199000000D02*
X169730000Y199000000D01*
%TD*%
M02*
