%TF.GenerationSoftware,KiCad,Pcbnew,10.0.1*%
%TF.CreationDate,2026-05-07T17:29:00+02:00*%
%TF.ProjectId,Testik,54657374-696b-42e6-9b69-6361645f7063,rev?*%
%TF.SameCoordinates,Original*%
%TF.FileFunction,Copper,L1,Top*%
%TF.FilePolarity,Positive*%
%FSLAX46Y46*%
G04 Gerber Fmt 4.6, Leading zero omitted, Abs format (unit mm)*
G04 Created by KiCad (PCBNEW 10.0.1) date 2026-05-07 17:29:00*
%MOMM*%
%LPD*%
G01*
G04 APERTURE LIST*
G04 Aperture macros list*
%AMRoundRect*
0 Rectangle with rounded corners*
0 $1 Rounding radius*
0 $2 $3 $4 $5 $6 $7 $8 $9 X,Y pos of 4 corners*
0 Add a 4 corners polygon primitive as box body*
4,1,4,$2,$3,$4,$5,$6,$7,$8,$9,$2,$3,0*
0 Add four circle primitives for the rounded corners*
1,1,$1+$1,$2,$3*
1,1,$1+$1,$4,$5*
1,1,$1+$1,$6,$7*
1,1,$1+$1,$8,$9*
0 Add four rect primitives between the rounded corners*
20,1,$1+$1,$2,$3,$4,$5,0*
20,1,$1+$1,$4,$5,$6,$7,0*
20,1,$1+$1,$6,$7,$8,$9,0*
20,1,$1+$1,$8,$9,$2,$3,0*%
G04 Aperture macros list end*
%TA.AperFunction,ComponentPad*%
%ADD10C,1.400000*%
%TD*%
%TA.AperFunction,ComponentPad*%
%ADD11C,1.815000*%
%TD*%
%TA.AperFunction,ComponentPad*%
%ADD12R,1.815000X1.815000*%
%TD*%
%TA.AperFunction,SMDPad,CuDef*%
%ADD13RoundRect,0.152400X-1.063600X-0.609600X1.063600X-0.609600X1.063600X0.609600X-1.063600X0.609600X0*%
%TD*%
%TA.AperFunction,ComponentPad*%
%ADD14C,1.524000*%
%TD*%
%TA.AperFunction,SMDPad,CuDef*%
%ADD15RoundRect,0.152400X1.063600X0.609600X-1.063600X0.609600X-1.063600X-0.609600X1.063600X-0.609600X0*%
%TD*%
%TA.AperFunction,ComponentPad*%
%ADD16R,2.000000X2.000000*%
%TD*%
%TA.AperFunction,ComponentPad*%
%ADD17C,2.000000*%
%TD*%
%TA.AperFunction,ComponentPad*%
%ADD18C,2.200000*%
%TD*%
%TA.AperFunction,ViaPad*%
%ADD19C,0.600000*%
%TD*%
%TA.AperFunction,Conductor*%
%ADD20C,0.200000*%
%TD*%
G04 APERTURE END LIST*
D10*
%TO.P,R3,1*%
%TO.N,Net-(D3-PadA)*%
X155540000Y-92280000D03*
%TO.P,R3,2*%
%TO.N,LED3*%
X150460000Y-92280000D03*
%TD*%
D11*
%TO.P,D1,A*%
%TO.N,Net-(D1-PadA)*%
X162810000Y-75280000D03*
D12*
%TO.P,D1,C*%
%TO.N,GND*%
X165350000Y-75280000D03*
%TD*%
D10*
%TO.P,R1,1*%
%TO.N,Net-(D1-PadA)*%
X156080000Y-75280000D03*
%TO.P,R1,2*%
%TO.N,LED1*%
X151000000Y-75280000D03*
%TD*%
D13*
%TO.P,U1,1,P26_A0_D0_1*%
%TO.N,button1*%
X144455000Y-94301500D03*
D14*
X143620000Y-94301500D03*
D13*
%TO.P,U1,2,P27_A1_D1_2*%
%TO.N,button2*%
X144455000Y-91761500D03*
D14*
X143620000Y-91761500D03*
D13*
%TO.P,U1,3,P28_A2_D2_3*%
%TO.N,button3*%
X144455000Y-89221500D03*
D14*
X143620000Y-89221500D03*
D13*
%TO.P,U1,4,P29_A3_D3_4*%
%TO.N,LED1*%
X144455000Y-86681500D03*
D14*
X143620000Y-86681500D03*
D13*
%TO.P,U1,5,P6_SDA_D4_5*%
%TO.N,LED2*%
X144455000Y-84141500D03*
D14*
X143620000Y-84141500D03*
D13*
%TO.P,U1,6,P7_SCL_D5_6*%
%TO.N,LED3*%
X144455000Y-81601500D03*
D14*
X143620000Y-81601500D03*
D13*
%TO.P,U1,7,P0_D6_TX_7*%
%TO.N,buzzer1*%
X144455000Y-79061500D03*
D14*
X143620000Y-79061500D03*
%TO.P,U1,8,P1_D7_RX_8*%
%TO.N,unconnected-(U1-P1_D7_RX-Pad8)*%
X128380000Y-79061500D03*
D15*
X127545000Y-79061500D03*
D14*
%TO.P,U1,9,P2_D8_SCK_9*%
%TO.N,unconnected-(U1-P2_D8_SCK-Pad9)*%
X128380000Y-81601500D03*
D15*
X127545000Y-81601500D03*
D14*
%TO.P,U1,10,P4_D9_MISO_10*%
%TO.N,unconnected-(U1-P4_D9_MISO-Pad10)*%
X128380000Y-84141500D03*
D15*
X127545000Y-84141500D03*
D14*
%TO.P,U1,11,P3_D10_MOSI_11*%
%TO.N,unconnected-(U1-P3_D10_MOSI-Pad11)*%
X128380000Y-86681500D03*
D15*
X127545000Y-86681500D03*
D14*
%TO.P,U1,12,3V3_12*%
%TO.N,unconnected-(U1-3V3-Pad12)*%
X128380000Y-89221500D03*
D15*
X127545000Y-89221500D03*
D14*
%TO.P,U1,13,GND_13*%
%TO.N,GND*%
X128380000Y-91761500D03*
D15*
X127545000Y-91761500D03*
D14*
%TO.P,U1,14,VBUS_14*%
%TO.N,unconnected-(U1-VBUS-Pad14)*%
X128380000Y-94301500D03*
D15*
X127545000Y-94301500D03*
%TD*%
D11*
%TO.P,D3,A*%
%TO.N,Net-(D3-PadA)*%
X163000000Y-92280000D03*
D12*
%TO.P,D3,C*%
%TO.N,GND*%
X165540000Y-92280000D03*
%TD*%
D16*
%TO.P,BZ1,1,+_1*%
%TO.N,buzzer1*%
X120140000Y-82280000D03*
D17*
%TO.P,BZ1,2,-_2*%
%TO.N,GND*%
X112540000Y-82280000D03*
%TD*%
D10*
%TO.P,R2,1*%
%TO.N,Net-(D2-PadA)*%
X155270000Y-83280000D03*
%TO.P,R2,2*%
%TO.N,LED2*%
X150190000Y-83280000D03*
%TD*%
D11*
%TO.P,D2,A*%
%TO.N,Net-(D2-PadA)*%
X162270000Y-83280000D03*
D12*
%TO.P,D2,C*%
%TO.N,GND*%
X164810000Y-83280000D03*
%TD*%
D18*
%TO.P,SW2,1,1_1*%
%TO.N,button2*%
X141160000Y-63470000D03*
%TO.P,SW2,2,2_2*%
%TO.N,GND*%
X138620000Y-57120000D03*
%TD*%
%TO.P,SW3,1,1_1*%
%TO.N,button3*%
X118620000Y-63820000D03*
%TO.P,SW3,2,2_2*%
%TO.N,GND*%
X116080000Y-57470000D03*
%TD*%
%TO.P,SW1,1,1_1*%
%TO.N,button1*%
X164160000Y-63470000D03*
%TO.P,SW1,2,2_2*%
%TO.N,GND*%
X161620000Y-57120000D03*
%TD*%
D19*
%TO.N,LED2*%
X146900000Y-86100000D03*
%TD*%
%TO.N,Net-(D3-PadA)*%
D20*
X155540000Y-92280000D02*
X163000000Y-92280000D01*
%TO.N,Net-(D1-PadA)*%
X156080000Y-75280000D02*
X162810000Y-75280000D01*
%TO.N,GND*%
X161620000Y-56280000D02*
X161620000Y-57120000D01*
X138270000Y-57470000D02*
X138620000Y-57120000D01*
X116080000Y-81512500D02*
X126329000Y-91761500D01*
X165350000Y-82740000D02*
X164810000Y-83280000D01*
X116080000Y-78740000D02*
X112540000Y-82280000D01*
X161620000Y-71550000D02*
X165350000Y-75280000D01*
X126329000Y-91761500D02*
X127545000Y-91761500D01*
X165350000Y-75280000D02*
X165350000Y-82740000D01*
X138620000Y-56280000D02*
X138620000Y-57120000D01*
X116080000Y-57470000D02*
X116080000Y-78740000D01*
X164810000Y-91550000D02*
X165540000Y-92280000D01*
X161620000Y-57120000D02*
X161620000Y-71550000D01*
X116080000Y-57470000D02*
X138270000Y-57470000D01*
X164810000Y-83280000D02*
X164810000Y-91550000D01*
X116080000Y-78740000D02*
X116080000Y-81512500D01*
X161620000Y-57120000D02*
X138620000Y-57120000D01*
%TO.N,LED1*%
X151000000Y-75280000D02*
X151000000Y-71330101D01*
X139760000Y-82821500D02*
X143620000Y-86681500D01*
X140580101Y-62070000D02*
X139760000Y-62890101D01*
X139760000Y-62890101D02*
X139760000Y-82821500D01*
X151000000Y-71330101D02*
X141739899Y-62070000D01*
X141739899Y-62070000D02*
X140580101Y-62070000D01*
%TO.N,button2*%
X141160000Y-63470000D02*
X145971000Y-68281000D01*
X145971000Y-68281000D02*
X145971000Y-90245500D01*
X145971000Y-90245500D02*
X144455000Y-91761500D01*
%TO.N,button3*%
X143620000Y-88820000D02*
X143620000Y-89221500D01*
X118620000Y-63820000D02*
X143620000Y-88820000D01*
%TO.N,LED2*%
X147370000Y-86100000D02*
X146900000Y-86100000D01*
X150190000Y-83280000D02*
X147370000Y-86100000D01*
%TO.N,buzzer1*%
X144312214Y-79200000D02*
X143700000Y-79200000D01*
%TO.N,Net-(D2-PadA)*%
X155270000Y-83280000D02*
X162270000Y-83280000D01*
%TD*%
M02*
