%TF.GenerationSoftware,KiCad,Pcbnew,10.0.1*%
%TF.CreationDate,2026-05-07T17:29:00+02:00*%
%TF.ProjectId,Testik,54657374-696b-42e6-9b69-6361645f7063,rev?*%
%TF.SameCoordinates,Original*%
%TF.FileFunction,Copper,L2,Bot*%
%TF.FilePolarity,Positive*%
%FSLAX46Y46*%
G04 Gerber Fmt 4.6, Leading zero omitted, Abs format (unit mm)*
G04 Created by KiCad (PCBNEW 10.0.1) date 2026-05-07 17:29:00*
%MOMM*%
%LPD*%
G01*
G04 APERTURE LIST*
%TA.AperFunction,ComponentPad*%
%ADD10C,1.400000*%
%TD*%
%TA.AperFunction,ComponentPad*%
%ADD11C,1.815000*%
%TD*%
%TA.AperFunction,ComponentPad*%
%ADD12R,1.815000X1.815000*%
%TD*%
%TA.AperFunction,ComponentPad*%
%ADD13C,1.524000*%
%TD*%
%TA.AperFunction,ComponentPad*%
%ADD14R,2.000000X2.000000*%
%TD*%
%TA.AperFunction,ComponentPad*%
%ADD15C,2.000000*%
%TD*%
%TA.AperFunction,ComponentPad*%
%ADD16C,2.200000*%
%TD*%
%TA.AperFunction,ViaPad*%
%ADD17C,0.600000*%
%TD*%
%TA.AperFunction,Conductor*%
%ADD18C,0.200000*%
%TD*%
G04 APERTURE END LIST*
D10*
%TO.P,R3,1*%
%TO.N,Net-(D3-PadA)*%
X155540000Y-92280000D03*
%TO.P,R3,2*%
%TO.N,LED3*%
X150460000Y-92280000D03*
%TD*%
D11*
%TO.P,D1,A*%
%TO.N,Net-(D1-PadA)*%
X162810000Y-75280000D03*
D12*
%TO.P,D1,C*%
%TO.N,GND*%
X165350000Y-75280000D03*
%TD*%
D10*
%TO.P,R1,1*%
%TO.N,Net-(D1-PadA)*%
X156080000Y-75280000D03*
%TO.P,R1,2*%
%TO.N,LED1*%
X151000000Y-75280000D03*
%TD*%
D13*
%TO.P,U1,1,P26_A0_D0_1*%
%TO.N,button1*%
X143620000Y-94301500D03*
%TO.P,U1,2,P27_A1_D1_2*%
%TO.N,button2*%
X143620000Y-91761500D03*
%TO.P,U1,3,P28_A2_D2_3*%
%TO.N,button3*%
X143620000Y-89221500D03*
%TO.P,U1,4,P29_A3_D3_4*%
%TO.N,LED1*%
X143620000Y-86681500D03*
%TO.P,U1,5,P6_SDA_D4_5*%
%TO.N,LED2*%
X143620000Y-84141500D03*
%TO.P,U1,6,P7_SCL_D5_6*%
%TO.N,LED3*%
X143620000Y-81601500D03*
%TO.P,U1,7,P0_D6_TX_7*%
%TO.N,buzzer1*%
X143620000Y-79061500D03*
%TO.P,U1,8,P1_D7_RX_8*%
%TO.N,unconnected-(U1-P1_D7_RX-Pad8)*%
X128380000Y-79061500D03*
%TO.P,U1,9,P2_D8_SCK_9*%
%TO.N,unconnected-(U1-P2_D8_SCK-Pad9)*%
X128380000Y-81601500D03*
%TO.P,U1,10,P4_D9_MISO_10*%
%TO.N,unconnected-(U1-P4_D9_MISO-Pad10)*%
X128380000Y-84141500D03*
%TO.P,U1,11,P3_D10_MOSI_11*%
%TO.N,unconnected-(U1-P3_D10_MOSI-Pad11)*%
X128380000Y-86681500D03*
%TO.P,U1,12,3V3_12*%
%TO.N,unconnected-(U1-3V3-Pad12)*%
X128380000Y-89221500D03*
%TO.P,U1,13,GND_13*%
%TO.N,GND*%
X128380000Y-91761500D03*
%TO.P,U1,14,VBUS_14*%
%TO.N,unconnected-(U1-VBUS-Pad14)*%
X128380000Y-94301500D03*
%TD*%
D11*
%TO.P,D3,A*%
%TO.N,Net-(D3-PadA)*%
X163000000Y-92280000D03*
D12*
%TO.P,D3,C*%
%TO.N,GND*%
X165540000Y-92280000D03*
%TD*%
D14*
%TO.P,BZ1,1,+_1*%
%TO.N,buzzer1*%
X120140000Y-82280000D03*
D15*
%TO.P,BZ1,2,-_2*%
%TO.N,GND*%
X112540000Y-82280000D03*
%TD*%
D10*
%TO.P,R2,1*%
%TO.N,Net-(D2-PadA)*%
X155270000Y-83280000D03*
%TO.P,R2,2*%
%TO.N,LED2*%
X150190000Y-83280000D03*
%TD*%
D11*
%TO.P,D2,A*%
%TO.N,Net-(D2-PadA)*%
X162270000Y-83280000D03*
D12*
%TO.P,D2,C*%
%TO.N,GND*%
X164810000Y-83280000D03*
%TD*%
D16*
%TO.P,SW2,1,1_1*%
%TO.N,button2*%
X141160000Y-63470000D03*
%TO.P,SW2,2,2_2*%
%TO.N,GND*%
X138620000Y-57120000D03*
%TD*%
%TO.P,SW3,1,1_1*%
%TO.N,button3*%
X118620000Y-63820000D03*
%TO.P,SW3,2,2_2*%
%TO.N,GND*%
X116080000Y-57470000D03*
%TD*%
%TO.P,SW1,1,1_1*%
%TO.N,button1*%
X164160000Y-63470000D03*
%TO.P,SW1,2,2_2*%
%TO.N,GND*%
X161620000Y-57120000D03*
%TD*%
D17*
%TO.N,LED2*%
X146900000Y-86100000D03*
%TD*%
%TO.N,LED3*%
D18*
X150460000Y-88441500D02*
X143620000Y-81601500D01*
X150460000Y-92280000D02*
X150460000Y-88441500D01*
%TO.N,button1*%
X149852714Y-94301500D02*
X143620000Y-94301500D01*
X161062500Y-83091714D02*
X149852714Y-94301500D01*
X164160000Y-63470000D02*
X161062500Y-66567500D01*
X161062500Y-66567500D02*
X161062500Y-83091714D01*
%TO.N,button3*%
X118620000Y-63820000D02*
X120480000Y-63820000D01*
%TO.N,LED2*%
X146850000Y-86100000D02*
X144891500Y-84141500D01*
X146900000Y-86100000D02*
X146850000Y-86100000D01*
X144891500Y-84141500D02*
X143620000Y-84141500D01*
%TO.N,buzzer1*%
X120140000Y-82280000D02*
X121880500Y-80539500D01*
X142142000Y-80539500D02*
X143620000Y-79061500D01*
X121880500Y-80539500D02*
X142142000Y-80539500D01*
%TD*%
M02*
