%TF.GenerationSoftware,KiCad,Pcbnew,10.0.1*%
%TF.CreationDate,2026-05-07T17:29:01+02:00*%
%TF.ProjectId,Testik,54657374-696b-42e6-9b69-6361645f7063,rev?*%
%TF.SameCoordinates,Original*%
%TF.FileFunction,Soldermask,Bot*%
%TF.FilePolarity,Negative*%
%FSLAX46Y46*%
G04 Gerber Fmt 4.6, Leading zero omitted, Abs format (unit mm)*
G04 Created by KiCad (PCBNEW 10.0.1) date 2026-05-07 17:29:01*
%MOMM*%
%LPD*%
G01*
G04 APERTURE LIST*
G04 Aperture macros list*
%AMRoundRect*
0 Rectangle with rounded corners*
0 $1 Rounding radius*
0 $2 $3 $4 $5 $6 $7 $8 $9 X,Y pos of 4 corners*
0 Add a 4 corners polygon primitive as box body*
4,1,4,$2,$3,$4,$5,$6,$7,$8,$9,$2,$3,0*
0 Add four circle primitives for the rounded corners*
1,1,$1+$1,$2,$3*
1,1,$1+$1,$4,$5*
1,1,$1+$1,$6,$7*
1,1,$1+$1,$8,$9*
0 Add four rect primitives between the rounded corners*
20,1,$1+$1,$2,$3,$4,$5,0*
20,1,$1+$1,$4,$5,$6,$7,0*
20,1,$1+$1,$6,$7,$8,$9,0*
20,1,$1+$1,$8,$9,$2,$3,0*%
G04 Aperture macros list end*
%ADD10C,1.400000*%
%ADD11C,2.019000*%
%ADD12RoundRect,0.102000X0.907500X0.907500X-0.907500X0.907500X-0.907500X-0.907500X0.907500X-0.907500X0*%
%ADD13C,1.524000*%
%ADD14R,2.000000X2.000000*%
%ADD15C,2.000000*%
%ADD16C,1.700000*%
%ADD17C,4.000000*%
%ADD18C,2.200000*%
G04 APERTURE END LIST*
D10*
%TO.C,R3*%
X155540000Y-92280000D03*
X150460000Y-92280000D03*
%TD*%
D11*
%TO.C,D1*%
X162810000Y-75280000D03*
D12*
X165350000Y-75280000D03*
%TD*%
D10*
%TO.C,R1*%
X156080000Y-75280000D03*
X151000000Y-75280000D03*
%TD*%
D13*
%TO.C,U1*%
X143620000Y-94301500D03*
X143620000Y-91761500D03*
X143620000Y-89221500D03*
X143620000Y-86681500D03*
X143620000Y-84141500D03*
X143620000Y-81601500D03*
X143620000Y-79061500D03*
X128380000Y-79061500D03*
X128380000Y-81601500D03*
X128380000Y-84141500D03*
X128380000Y-86681500D03*
X128380000Y-89221500D03*
X128380000Y-91761500D03*
X128380000Y-94301500D03*
%TD*%
D11*
%TO.C,D3*%
X163000000Y-92280000D03*
D12*
X165540000Y-92280000D03*
%TD*%
D14*
%TO.C,BZ1*%
X120140000Y-82280000D03*
D15*
X112540000Y-82280000D03*
%TD*%
D10*
%TO.C,R2*%
X155270000Y-83280000D03*
X150190000Y-83280000D03*
%TD*%
D11*
%TO.C,D2*%
X162270000Y-83280000D03*
D12*
X164810000Y-83280000D03*
%TD*%
D16*
%TO.C,SW2*%
X136080000Y-55850000D03*
D17*
X136080000Y-60930000D03*
D16*
X136080000Y-66010000D03*
D18*
X141160000Y-63470000D03*
X138620000Y-57120000D03*
%TD*%
D16*
%TO.C,SW3*%
X113540000Y-56200000D03*
D17*
X113540000Y-61280000D03*
D16*
X113540000Y-66360000D03*
D18*
X118620000Y-63820000D03*
X116080000Y-57470000D03*
%TD*%
D16*
%TO.C,SW1*%
X159080000Y-55850000D03*
D17*
X159080000Y-60930000D03*
D16*
X159080000Y-66010000D03*
D18*
X164160000Y-63470000D03*
X161620000Y-57120000D03*
%TD*%
M02*
