%TF.GenerationSoftware,KiCad,Pcbnew,10.0.1*%
%TF.CreationDate,2026-05-07T17:29:00+02:00*%
%TF.ProjectId,Testik,54657374-696b-42e6-9b69-6361645f7063,rev?*%
%TF.SameCoordinates,Original*%
%TF.FileFunction,Legend,Top*%
%TF.FilePolarity,Positive*%
%FSLAX46Y46*%
G04 Gerber Fmt 4.6, Leading zero omitted, Abs format (unit mm)*
G04 Created by KiCad (PCBNEW 10.0.1) date 2026-05-07 17:29:00*
%MOMM*%
%LPD*%
G01*
G04 APERTURE LIST*
%ADD10C,0.150000*%
%ADD11C,0.101600*%
%ADD12C,0.120000*%
%ADD13C,0.127000*%
%ADD14C,0.200000*%
%ADD15C,0.100000*%
%ADD16C,0.504000*%
G04 APERTURE END LIST*
D10*
X152833333Y-94654819D02*
X152500000Y-94178628D01*
X152261905Y-94654819D02*
X152261905Y-93654819D01*
X152261905Y-93654819D02*
X152642857Y-93654819D01*
X152642857Y-93654819D02*
X152738095Y-93702438D01*
X152738095Y-93702438D02*
X152785714Y-93750057D01*
X152785714Y-93750057D02*
X152833333Y-93845295D01*
X152833333Y-93845295D02*
X152833333Y-93988152D01*
X152833333Y-93988152D02*
X152785714Y-94083390D01*
X152785714Y-94083390D02*
X152738095Y-94131009D01*
X152738095Y-94131009D02*
X152642857Y-94178628D01*
X152642857Y-94178628D02*
X152261905Y-94178628D01*
X153166667Y-93654819D02*
X153785714Y-93654819D01*
X153785714Y-93654819D02*
X153452381Y-94035771D01*
X153452381Y-94035771D02*
X153595238Y-94035771D01*
X153595238Y-94035771D02*
X153690476Y-94083390D01*
X153690476Y-94083390D02*
X153738095Y-94131009D01*
X153738095Y-94131009D02*
X153785714Y-94226247D01*
X153785714Y-94226247D02*
X153785714Y-94464342D01*
X153785714Y-94464342D02*
X153738095Y-94559580D01*
X153738095Y-94559580D02*
X153690476Y-94607200D01*
X153690476Y-94607200D02*
X153595238Y-94654819D01*
X153595238Y-94654819D02*
X153309524Y-94654819D01*
X153309524Y-94654819D02*
X153214286Y-94607200D01*
X153214286Y-94607200D02*
X153166667Y-94559580D01*
X163449524Y-79350295D02*
X163449524Y-78550295D01*
X163449524Y-78550295D02*
X163640000Y-78550295D01*
X163640000Y-78550295D02*
X163754286Y-78588390D01*
X163754286Y-78588390D02*
X163830476Y-78664580D01*
X163830476Y-78664580D02*
X163868571Y-78740771D01*
X163868571Y-78740771D02*
X163906667Y-78893152D01*
X163906667Y-78893152D02*
X163906667Y-79007438D01*
X163906667Y-79007438D02*
X163868571Y-79159819D01*
X163868571Y-79159819D02*
X163830476Y-79236009D01*
X163830476Y-79236009D02*
X163754286Y-79312200D01*
X163754286Y-79312200D02*
X163640000Y-79350295D01*
X163640000Y-79350295D02*
X163449524Y-79350295D01*
X164668571Y-79350295D02*
X164211428Y-79350295D01*
X164440000Y-79350295D02*
X164440000Y-78550295D01*
X164440000Y-78550295D02*
X164363809Y-78664580D01*
X164363809Y-78664580D02*
X164287619Y-78740771D01*
X164287619Y-78740771D02*
X164211428Y-78778866D01*
X153373333Y-77654819D02*
X153040000Y-77178628D01*
X152801905Y-77654819D02*
X152801905Y-76654819D01*
X152801905Y-76654819D02*
X153182857Y-76654819D01*
X153182857Y-76654819D02*
X153278095Y-76702438D01*
X153278095Y-76702438D02*
X153325714Y-76750057D01*
X153325714Y-76750057D02*
X153373333Y-76845295D01*
X153373333Y-76845295D02*
X153373333Y-76988152D01*
X153373333Y-76988152D02*
X153325714Y-77083390D01*
X153325714Y-77083390D02*
X153278095Y-77131009D01*
X153278095Y-77131009D02*
X153182857Y-77178628D01*
X153182857Y-77178628D02*
X152801905Y-77178628D01*
X154325714Y-77654819D02*
X153754286Y-77654819D01*
X154040000Y-77654819D02*
X154040000Y-76654819D01*
X154040000Y-76654819D02*
X153944762Y-76797676D01*
X153944762Y-76797676D02*
X153849524Y-76892914D01*
X153849524Y-76892914D02*
X153754286Y-76940533D01*
D11*
X146596520Y-86072690D02*
X146082473Y-86072690D01*
X146082473Y-86072690D02*
X146021997Y-86102928D01*
X146021997Y-86102928D02*
X145991759Y-86133166D01*
X145991759Y-86133166D02*
X145961520Y-86193642D01*
X145961520Y-86193642D02*
X145961520Y-86314595D01*
X145961520Y-86314595D02*
X145991759Y-86375071D01*
X145991759Y-86375071D02*
X146021997Y-86405309D01*
X146021997Y-86405309D02*
X146082473Y-86435547D01*
X146082473Y-86435547D02*
X146596520Y-86435547D01*
X145961520Y-87070547D02*
X145961520Y-86707690D01*
X145961520Y-86889118D02*
X146596520Y-86889118D01*
X146596520Y-86889118D02*
X146505806Y-86828642D01*
X146505806Y-86828642D02*
X146445330Y-86768166D01*
X146445330Y-86768166D02*
X146415092Y-86707690D01*
D10*
X163639524Y-96350295D02*
X163639524Y-95550295D01*
X163639524Y-95550295D02*
X163830000Y-95550295D01*
X163830000Y-95550295D02*
X163944286Y-95588390D01*
X163944286Y-95588390D02*
X164020476Y-95664580D01*
X164020476Y-95664580D02*
X164058571Y-95740771D01*
X164058571Y-95740771D02*
X164096667Y-95893152D01*
X164096667Y-95893152D02*
X164096667Y-96007438D01*
X164096667Y-96007438D02*
X164058571Y-96159819D01*
X164058571Y-96159819D02*
X164020476Y-96236009D01*
X164020476Y-96236009D02*
X163944286Y-96312200D01*
X163944286Y-96312200D02*
X163830000Y-96350295D01*
X163830000Y-96350295D02*
X163639524Y-96350295D01*
X164363333Y-95550295D02*
X164858571Y-95550295D01*
X164858571Y-95550295D02*
X164591905Y-95855057D01*
X164591905Y-95855057D02*
X164706190Y-95855057D01*
X164706190Y-95855057D02*
X164782381Y-95893152D01*
X164782381Y-95893152D02*
X164820476Y-95931247D01*
X164820476Y-95931247D02*
X164858571Y-96007438D01*
X164858571Y-96007438D02*
X164858571Y-96197914D01*
X164858571Y-96197914D02*
X164820476Y-96274104D01*
X164820476Y-96274104D02*
X164782381Y-96312200D01*
X164782381Y-96312200D02*
X164706190Y-96350295D01*
X164706190Y-96350295D02*
X164477619Y-96350295D01*
X164477619Y-96350295D02*
X164401428Y-96312200D01*
X164401428Y-96312200D02*
X164363333Y-96274104D01*
X115459047Y-89411009D02*
X115601904Y-89458628D01*
X115601904Y-89458628D02*
X115649523Y-89506247D01*
X115649523Y-89506247D02*
X115697142Y-89601485D01*
X115697142Y-89601485D02*
X115697142Y-89744342D01*
X115697142Y-89744342D02*
X115649523Y-89839580D01*
X115649523Y-89839580D02*
X115601904Y-89887200D01*
X115601904Y-89887200D02*
X115506666Y-89934819D01*
X115506666Y-89934819D02*
X115125714Y-89934819D01*
X115125714Y-89934819D02*
X115125714Y-88934819D01*
X115125714Y-88934819D02*
X115459047Y-88934819D01*
X115459047Y-88934819D02*
X115554285Y-88982438D01*
X115554285Y-88982438D02*
X115601904Y-89030057D01*
X115601904Y-89030057D02*
X115649523Y-89125295D01*
X115649523Y-89125295D02*
X115649523Y-89220533D01*
X115649523Y-89220533D02*
X115601904Y-89315771D01*
X115601904Y-89315771D02*
X115554285Y-89363390D01*
X115554285Y-89363390D02*
X115459047Y-89411009D01*
X115459047Y-89411009D02*
X115125714Y-89411009D01*
X116030476Y-88934819D02*
X116697142Y-88934819D01*
X116697142Y-88934819D02*
X116030476Y-89934819D01*
X116030476Y-89934819D02*
X116697142Y-89934819D01*
X117601904Y-89934819D02*
X117030476Y-89934819D01*
X117316190Y-89934819D02*
X117316190Y-88934819D01*
X117316190Y-88934819D02*
X117220952Y-89077676D01*
X117220952Y-89077676D02*
X117125714Y-89172914D01*
X117125714Y-89172914D02*
X117030476Y-89220533D01*
X119769048Y-84893866D02*
X120530953Y-84893866D01*
X120150000Y-85274819D02*
X120150000Y-84512914D01*
X152563333Y-85654819D02*
X152230000Y-85178628D01*
X151991905Y-85654819D02*
X151991905Y-84654819D01*
X151991905Y-84654819D02*
X152372857Y-84654819D01*
X152372857Y-84654819D02*
X152468095Y-84702438D01*
X152468095Y-84702438D02*
X152515714Y-84750057D01*
X152515714Y-84750057D02*
X152563333Y-84845295D01*
X152563333Y-84845295D02*
X152563333Y-84988152D01*
X152563333Y-84988152D02*
X152515714Y-85083390D01*
X152515714Y-85083390D02*
X152468095Y-85131009D01*
X152468095Y-85131009D02*
X152372857Y-85178628D01*
X152372857Y-85178628D02*
X151991905Y-85178628D01*
X152944286Y-84750057D02*
X152991905Y-84702438D01*
X152991905Y-84702438D02*
X153087143Y-84654819D01*
X153087143Y-84654819D02*
X153325238Y-84654819D01*
X153325238Y-84654819D02*
X153420476Y-84702438D01*
X153420476Y-84702438D02*
X153468095Y-84750057D01*
X153468095Y-84750057D02*
X153515714Y-84845295D01*
X153515714Y-84845295D02*
X153515714Y-84940533D01*
X153515714Y-84940533D02*
X153468095Y-85083390D01*
X153468095Y-85083390D02*
X152896667Y-85654819D01*
X152896667Y-85654819D02*
X153515714Y-85654819D01*
X162909524Y-87350295D02*
X162909524Y-86550295D01*
X162909524Y-86550295D02*
X163100000Y-86550295D01*
X163100000Y-86550295D02*
X163214286Y-86588390D01*
X163214286Y-86588390D02*
X163290476Y-86664580D01*
X163290476Y-86664580D02*
X163328571Y-86740771D01*
X163328571Y-86740771D02*
X163366667Y-86893152D01*
X163366667Y-86893152D02*
X163366667Y-87007438D01*
X163366667Y-87007438D02*
X163328571Y-87159819D01*
X163328571Y-87159819D02*
X163290476Y-87236009D01*
X163290476Y-87236009D02*
X163214286Y-87312200D01*
X163214286Y-87312200D02*
X163100000Y-87350295D01*
X163100000Y-87350295D02*
X162909524Y-87350295D01*
X163671428Y-86626485D02*
X163709524Y-86588390D01*
X163709524Y-86588390D02*
X163785714Y-86550295D01*
X163785714Y-86550295D02*
X163976190Y-86550295D01*
X163976190Y-86550295D02*
X164052381Y-86588390D01*
X164052381Y-86588390D02*
X164090476Y-86626485D01*
X164090476Y-86626485D02*
X164128571Y-86702676D01*
X164128571Y-86702676D02*
X164128571Y-86778866D01*
X164128571Y-86778866D02*
X164090476Y-86893152D01*
X164090476Y-86893152D02*
X163633333Y-87350295D01*
X163633333Y-87350295D02*
X164128571Y-87350295D01*
X144271200Y-62263332D02*
X144318819Y-62120475D01*
X144318819Y-62120475D02*
X144318819Y-61882380D01*
X144318819Y-61882380D02*
X144271200Y-61787142D01*
X144271200Y-61787142D02*
X144223580Y-61739523D01*
X144223580Y-61739523D02*
X144128342Y-61691904D01*
X144128342Y-61691904D02*
X144033104Y-61691904D01*
X144033104Y-61691904D02*
X143937866Y-61739523D01*
X143937866Y-61739523D02*
X143890247Y-61787142D01*
X143890247Y-61787142D02*
X143842628Y-61882380D01*
X143842628Y-61882380D02*
X143795009Y-62072856D01*
X143795009Y-62072856D02*
X143747390Y-62168094D01*
X143747390Y-62168094D02*
X143699771Y-62215713D01*
X143699771Y-62215713D02*
X143604533Y-62263332D01*
X143604533Y-62263332D02*
X143509295Y-62263332D01*
X143509295Y-62263332D02*
X143414057Y-62215713D01*
X143414057Y-62215713D02*
X143366438Y-62168094D01*
X143366438Y-62168094D02*
X143318819Y-62072856D01*
X143318819Y-62072856D02*
X143318819Y-61834761D01*
X143318819Y-61834761D02*
X143366438Y-61691904D01*
X143318819Y-61358570D02*
X144318819Y-61120475D01*
X144318819Y-61120475D02*
X143604533Y-60929999D01*
X143604533Y-60929999D02*
X144318819Y-60739523D01*
X144318819Y-60739523D02*
X143318819Y-60501428D01*
X143414057Y-60168094D02*
X143366438Y-60120475D01*
X143366438Y-60120475D02*
X143318819Y-60025237D01*
X143318819Y-60025237D02*
X143318819Y-59787142D01*
X143318819Y-59787142D02*
X143366438Y-59691904D01*
X143366438Y-59691904D02*
X143414057Y-59644285D01*
X143414057Y-59644285D02*
X143509295Y-59596666D01*
X143509295Y-59596666D02*
X143604533Y-59596666D01*
X143604533Y-59596666D02*
X143747390Y-59644285D01*
X143747390Y-59644285D02*
X144318819Y-60215713D01*
X144318819Y-60215713D02*
X144318819Y-59596666D01*
X121947200Y-62613332D02*
X121994819Y-62470475D01*
X121994819Y-62470475D02*
X121994819Y-62232380D01*
X121994819Y-62232380D02*
X121947200Y-62137142D01*
X121947200Y-62137142D02*
X121899580Y-62089523D01*
X121899580Y-62089523D02*
X121804342Y-62041904D01*
X121804342Y-62041904D02*
X121709104Y-62041904D01*
X121709104Y-62041904D02*
X121613866Y-62089523D01*
X121613866Y-62089523D02*
X121566247Y-62137142D01*
X121566247Y-62137142D02*
X121518628Y-62232380D01*
X121518628Y-62232380D02*
X121471009Y-62422856D01*
X121471009Y-62422856D02*
X121423390Y-62518094D01*
X121423390Y-62518094D02*
X121375771Y-62565713D01*
X121375771Y-62565713D02*
X121280533Y-62613332D01*
X121280533Y-62613332D02*
X121185295Y-62613332D01*
X121185295Y-62613332D02*
X121090057Y-62565713D01*
X121090057Y-62565713D02*
X121042438Y-62518094D01*
X121042438Y-62518094D02*
X120994819Y-62422856D01*
X120994819Y-62422856D02*
X120994819Y-62184761D01*
X120994819Y-62184761D02*
X121042438Y-62041904D01*
X120994819Y-61708570D02*
X121994819Y-61470475D01*
X121994819Y-61470475D02*
X121280533Y-61279999D01*
X121280533Y-61279999D02*
X121994819Y-61089523D01*
X121994819Y-61089523D02*
X120994819Y-60851428D01*
X120994819Y-60565713D02*
X120994819Y-59946666D01*
X120994819Y-59946666D02*
X121375771Y-60279999D01*
X121375771Y-60279999D02*
X121375771Y-60137142D01*
X121375771Y-60137142D02*
X121423390Y-60041904D01*
X121423390Y-60041904D02*
X121471009Y-59994285D01*
X121471009Y-59994285D02*
X121566247Y-59946666D01*
X121566247Y-59946666D02*
X121804342Y-59946666D01*
X121804342Y-59946666D02*
X121899580Y-59994285D01*
X121899580Y-59994285D02*
X121947200Y-60041904D01*
X121947200Y-60041904D02*
X121994819Y-60137142D01*
X121994819Y-60137142D02*
X121994819Y-60422856D01*
X121994819Y-60422856D02*
X121947200Y-60518094D01*
X121947200Y-60518094D02*
X121899580Y-60565713D01*
X167361200Y-62263332D02*
X167408819Y-62120475D01*
X167408819Y-62120475D02*
X167408819Y-61882380D01*
X167408819Y-61882380D02*
X167361200Y-61787142D01*
X167361200Y-61787142D02*
X167313580Y-61739523D01*
X167313580Y-61739523D02*
X167218342Y-61691904D01*
X167218342Y-61691904D02*
X167123104Y-61691904D01*
X167123104Y-61691904D02*
X167027866Y-61739523D01*
X167027866Y-61739523D02*
X166980247Y-61787142D01*
X166980247Y-61787142D02*
X166932628Y-61882380D01*
X166932628Y-61882380D02*
X166885009Y-62072856D01*
X166885009Y-62072856D02*
X166837390Y-62168094D01*
X166837390Y-62168094D02*
X166789771Y-62215713D01*
X166789771Y-62215713D02*
X166694533Y-62263332D01*
X166694533Y-62263332D02*
X166599295Y-62263332D01*
X166599295Y-62263332D02*
X166504057Y-62215713D01*
X166504057Y-62215713D02*
X166456438Y-62168094D01*
X166456438Y-62168094D02*
X166408819Y-62072856D01*
X166408819Y-62072856D02*
X166408819Y-61834761D01*
X166408819Y-61834761D02*
X166456438Y-61691904D01*
X166408819Y-61358570D02*
X167408819Y-61120475D01*
X167408819Y-61120475D02*
X166694533Y-60929999D01*
X166694533Y-60929999D02*
X167408819Y-60739523D01*
X167408819Y-60739523D02*
X166408819Y-60501428D01*
X167408819Y-59596666D02*
X167408819Y-60168094D01*
X167408819Y-59882380D02*
X166408819Y-59882380D01*
X166408819Y-59882380D02*
X166551676Y-59977618D01*
X166551676Y-59977618D02*
X166646914Y-60072856D01*
X166646914Y-60072856D02*
X166694533Y-60168094D01*
%TO.C,R3*%
D12*
X154920000Y-91360000D02*
X151080000Y-91360000D01*
X154920000Y-93200000D02*
X151080000Y-93200000D01*
%TO.C,D1*%
D13*
X166580000Y-76846000D02*
X166580000Y-73714000D01*
X166580000Y-76846000D02*
G75*
G02*
X166580000Y-73714000I-2506124J1566000D01*
G01*
D14*
X167380000Y-75280000D02*
G75*
G02*
X167180000Y-75280000I-100000J0D01*
G01*
X167180000Y-75280000D02*
G75*
G02*
X167380000Y-75280000I100000J0D01*
G01*
%TO.C,R1*%
D12*
X155460000Y-74360000D02*
X151620000Y-74360000D01*
X155460000Y-76200000D02*
X151620000Y-76200000D01*
%TO.C,U1*%
D13*
X127110000Y-78172500D02*
X127110000Y-95317500D01*
D15*
X129015000Y-97222500D02*
X142985000Y-97222500D01*
D13*
X129015000Y-97222500D02*
X142985000Y-97222500D01*
X131496000Y-98132500D02*
X131496000Y-97222500D01*
X139991272Y-98632500D02*
X131996000Y-98632500D01*
X140495000Y-97222500D02*
X140491272Y-98132772D01*
X142985000Y-76267500D02*
X129015000Y-76267500D01*
X144890000Y-78172500D02*
X144890000Y-95317500D01*
X127110000Y-78172500D02*
G75*
G02*
X129015000Y-76267500I1905001J-1D01*
G01*
X129015000Y-97222500D02*
G75*
G02*
X127110000Y-95317500I0J1905000D01*
G01*
X131996000Y-98632500D02*
G75*
G02*
X131496000Y-98132500I0J500000D01*
G01*
X140491272Y-98132772D02*
G75*
G02*
X139991272Y-98632472I-499972J272D01*
G01*
X142985000Y-76267500D02*
G75*
G02*
X144890000Y-78172500I-1J-1905001D01*
G01*
X144890000Y-95317500D02*
G75*
G02*
X142985000Y-97222500I-1905000J0D01*
G01*
D16*
X144059000Y-96101500D02*
G75*
G02*
X143555000Y-96101500I-252000J0D01*
G01*
X143555000Y-96101500D02*
G75*
G02*
X144059000Y-96101500I252000J0D01*
G01*
X145202000Y-96981500D02*
G75*
G02*
X144698000Y-96981500I-252000J0D01*
G01*
X144698000Y-96981500D02*
G75*
G02*
X145202000Y-96981500I252000J0D01*
G01*
%TO.C,D3*%
D13*
X166770000Y-93846000D02*
X166770000Y-90714000D01*
X166770000Y-93846000D02*
G75*
G02*
X166770000Y-90714000I-2506124J1566000D01*
G01*
D14*
X167570000Y-92280000D02*
G75*
G02*
X167370000Y-92280000I-100000J0D01*
G01*
X167370000Y-92280000D02*
G75*
G02*
X167570000Y-92280000I100000J0D01*
G01*
%TO.C,BZ1*%
D12*
X122440000Y-82280000D02*
G75*
G02*
X110240000Y-82280000I-6100000J0D01*
G01*
X110240000Y-82280000D02*
G75*
G02*
X122440000Y-82280000I6100000J0D01*
G01*
%TO.C,R2*%
X154650000Y-82360000D02*
X150810000Y-82360000D01*
X154650000Y-84200000D02*
X150810000Y-84200000D01*
%TO.C,D2*%
D13*
X166040000Y-84846000D02*
X166040000Y-81714000D01*
X166040000Y-84846000D02*
G75*
G02*
X166040000Y-81714000I-2506124J1566000D01*
G01*
D14*
X166840000Y-83280000D02*
G75*
G02*
X166640000Y-83280000I-100000J0D01*
G01*
X166640000Y-83280000D02*
G75*
G02*
X166840000Y-83280000I100000J0D01*
G01*
%TO.C,SW2*%
D12*
X129095000Y-53945000D02*
X143065000Y-53945000D01*
X129095000Y-67915000D02*
X129095000Y-53945000D01*
X143065000Y-53945000D02*
X143065000Y-67915000D01*
X143065000Y-67915000D02*
X129095000Y-67915000D01*
%TO.C,SW3*%
X106555000Y-54295000D02*
X120525000Y-54295000D01*
X106555000Y-68265000D02*
X106555000Y-54295000D01*
X120525000Y-54295000D02*
X120525000Y-68265000D01*
X120525000Y-68265000D02*
X106555000Y-68265000D01*
%TO.C,SW1*%
X152095000Y-53945000D02*
X166065000Y-53945000D01*
X152095000Y-67915000D02*
X152095000Y-53945000D01*
X166065000Y-53945000D02*
X166065000Y-67915000D01*
X166065000Y-67915000D02*
X152095000Y-67915000D01*
%TD*%
M02*
