M48
; DRILL file KiCad 10.0.1 date 2026-04-19T22:14:01
; FORMAT={-:-/ absolute / metric / decimal}
; #@! TF.CreationDate,2026-04-19T22:14:01+02:00
; #@! TF.GenerationSoftware,Kicad,Pcbnew,10.0.1
; #@! TF.FileFunction,Plated,1,2,PTH
FMAT,2
METRIC
; #@! TA.AperFunction,Plated,PTH,ComponentDrill
T1C0.700
; #@! TA.AperFunction,Plated,PTH,ComponentDrill
T2C0.889
; #@! TA.AperFunction,Plated,PTH,ComponentDrill
T3C1.000
; #@! TA.AperFunction,Plated,PTH,ComponentDrill
T4C1.210
; #@! TA.AperFunction,Plated,PTH,ComponentDrill
T5C1.500
%
G90
G05
T1
X157.65Y199.0
X157.92Y190.0
X158.46Y207.0
X162.73Y199.0
X163.0Y190.0
X163.54Y207.0
T2
X135.92Y205.62
X135.92Y190.38
X138.46Y205.62
X138.46Y190.38
X141.0Y205.62
X141.0Y190.38
X143.54Y205.62
X143.54Y190.38
X146.08Y205.62
X146.08Y190.38
X148.62Y205.62
X148.62Y190.38
X151.16Y205.62
X151.16Y190.38
T3
X120.0Y200.0
X127.6Y200.0
T4
X169.73Y199.0
X170.27Y207.0
X170.46Y190.0
X172.27Y199.0
X172.81Y207.0
X173.0Y190.0
T5
X123.54Y224.81
X126.08Y218.46
X146.08Y225.16
X148.62Y218.81
X169.08Y225.16
X171.62Y218.81
M30
