%TF.GenerationSoftware,KiCad,Pcbnew,10.0.1*%
%TF.CreationDate,2026-04-19T22:12:28+02:00*%
%TF.ProjectId,Testik,54657374-696b-42e6-9b69-6361645f7063,rev?*%
%TF.SameCoordinates,Original*%
%TF.FileFunction,Copper,L2,Bot*%
%TF.FilePolarity,Positive*%
%FSLAX46Y46*%
G04 Gerber Fmt 4.6, Leading zero omitted, Abs format (unit mm)*
G04 Created by KiCad (PCBNEW 10.0.1) date 2026-04-19 22:12:28*
%MOMM*%
%LPD*%
G01*
G04 APERTURE LIST*
%TA.AperFunction,ComponentPad*%
%ADD10C,1.400000*%
%TD*%
%TA.AperFunction,ComponentPad*%
%ADD11C,1.815000*%
%TD*%
%TA.AperFunction,ComponentPad*%
%ADD12R,1.815000X1.815000*%
%TD*%
%TA.AperFunction,ComponentPad*%
%ADD13C,1.524000*%
%TD*%
%TA.AperFunction,ComponentPad*%
%ADD14R,2.000000X2.000000*%
%TD*%
%TA.AperFunction,ComponentPad*%
%ADD15C,2.000000*%
%TD*%
%TA.AperFunction,ComponentPad*%
%ADD16C,2.200000*%
%TD*%
%TA.AperFunction,Conductor*%
%ADD17C,0.200000*%
%TD*%
G04 APERTURE END LIST*
D10*
%TO.P,R3,1*%
%TO.N,Net-(D3-PadA)*%
X163000000Y190000000D03*
%TO.P,R3,2*%
%TO.N,LED3*%
X157920000Y190000000D03*
%TD*%
D11*
%TO.P,D1,A*%
%TO.N,Net-(D1-PadA)*%
X170270000Y207000000D03*
D12*
%TO.P,D1,C*%
%TO.N,GND*%
X172810000Y207000000D03*
%TD*%
D10*
%TO.P,R1,1*%
%TO.N,Net-(D1-PadA)*%
X163540000Y207000000D03*
%TO.P,R1,2*%
%TO.N,LED1*%
X158460000Y207000000D03*
%TD*%
D13*
%TO.P,U1,1,P26_A0_D0_1*%
%TO.N,button1*%
X151160000Y205620000D03*
%TO.P,U1,2,P27_A1_D1_2*%
%TO.N,button2*%
X148620000Y205620000D03*
%TO.P,U1,3,P28_A2_D2_3*%
%TO.N,button3*%
X146080000Y205620000D03*
%TO.P,U1,4,P29_A3_D3_4*%
%TO.N,LED1*%
X143540000Y205620000D03*
%TO.P,U1,5,P6_SDA_D4_5*%
%TO.N,LED2*%
X141000000Y205620000D03*
%TO.P,U1,6,P7_SCL_D5_6*%
%TO.N,LED3*%
X138460000Y205620000D03*
%TO.P,U1,7,P0_D6_TX_7*%
%TO.N,buzzer1*%
X135920000Y205620000D03*
%TO.P,U1,8,P1_D7_RX_8*%
%TO.N,unconnected-(U1-P1_D7_RX-Pad8)*%
X135920000Y190380000D03*
%TO.P,U1,9,P2_D8_SCK_9*%
%TO.N,unconnected-(U1-P2_D8_SCK-Pad9)*%
X138460000Y190380000D03*
%TO.P,U1,10,P4_D9_MISO_10*%
%TO.N,unconnected-(U1-P4_D9_MISO-Pad10)*%
X141000000Y190380000D03*
%TO.P,U1,11,P3_D10_MOSI_11*%
%TO.N,unconnected-(U1-P3_D10_MOSI-Pad11)*%
X143540000Y190380000D03*
%TO.P,U1,12,3V3_12*%
%TO.N,unconnected-(U1-3V3-Pad12)*%
X146080000Y190380000D03*
%TO.P,U1,13,GND_13*%
%TO.N,GND*%
X148620000Y190380000D03*
%TO.P,U1,14,VBUS_14*%
%TO.N,unconnected-(U1-VBUS-Pad14)*%
X151160000Y190380000D03*
%TD*%
D11*
%TO.P,D3,A*%
%TO.N,Net-(D3-PadA)*%
X170460000Y190000000D03*
D12*
%TO.P,D3,C*%
%TO.N,GND*%
X173000000Y190000000D03*
%TD*%
D14*
%TO.P,BZ1,1,+_1*%
%TO.N,buzzer1*%
X127600000Y200000000D03*
D15*
%TO.P,BZ1,2,-_2*%
%TO.N,GND*%
X120000000Y200000000D03*
%TD*%
D10*
%TO.P,R2,1*%
%TO.N,Net-(D2-PadA)*%
X162730000Y199000000D03*
%TO.P,R2,2*%
%TO.N,LED2*%
X157650000Y199000000D03*
%TD*%
D11*
%TO.P,D2,A*%
%TO.N,Net-(D2-PadA)*%
X169730000Y199000000D03*
D12*
%TO.P,D2,C*%
%TO.N,GND*%
X172270000Y199000000D03*
%TD*%
D16*
%TO.P,SW2,1,1_1*%
%TO.N,button2*%
X148620000Y218810000D03*
%TO.P,SW2,2,2_2*%
%TO.N,GND*%
X146080000Y225160000D03*
%TD*%
%TO.P,SW3,1,1_1*%
%TO.N,button3*%
X126080000Y218460000D03*
%TO.P,SW3,2,2_2*%
%TO.N,GND*%
X123540000Y224810000D03*
%TD*%
%TO.P,SW1,1,1_1*%
%TO.N,button1*%
X171620000Y218810000D03*
%TO.P,SW1,2,2_2*%
%TO.N,GND*%
X169080000Y225160000D03*
%TD*%
%TO.N,GND*%
D17*
X173000000Y190000000D02*
X171792500Y188792500D01*
X171792500Y188792500D02*
X150207500Y188792500D01*
X150207500Y188792500D02*
X148620000Y190380000D01*
%TO.N,LED1*%
X144602000Y204558000D02*
X143540000Y205620000D01*
X158460000Y207000000D02*
X156018000Y204558000D01*
X156018000Y204558000D02*
X144602000Y204558000D01*
%TO.N,button1*%
X171620000Y218810000D02*
X164350000Y218810000D01*
X164350000Y218810000D02*
X151160000Y205620000D01*
%TD*%
M02*
